<svg xmlns="http://www.w3.org/2000/svg" xmlns:xlink="http://www.w3.org/1999/xlink" width="1920" zoomAndPan="magnify" viewBox="0 0 1440 809.999993" height="1080" preserveAspectRatio="xMidYMid meet" version="1.0"><defs><clipPath id="010f6afc98"><path d="M 349.5 34.5 L 1090.5 34.5 L 1090.5 775.5 L 349.5 775.5 Z M 349.5 34.5 " clip-rule="nonzero"/></clipPath></defs><g clip-path="url(#010f6afc98)"><path fill="#d9d9d9" d="M 1090.542969 405.039062 C 1090.542969 609.664062 924.664062 775.542969 720.039062 775.542969 C 515.414062 775.542969 349.535156 609.664062 349.535156 405.039062 C 349.535156 200.414062 515.414062 34.535156 720.039062 34.535156 C 924.664062 34.535156 1090.542969 200.414062 1090.542969 405.039062 " fill-opacity="1" fill-rule="nonzero"/></g><path fill="#ffffff" d="M 935.253906 254.6875 L 870.394531 189.824219 L 720.039062 340.179688 L 569.6875 189.824219 L 504.824219 254.6875 L 655.179688 405.039062 L 504.824219 555.394531 L 569.6875 620.253906 L 720.039062 469.898438 L 870.394531 620.253906 L 935.253906 555.394531 L 784.898438 405.039062 L 935.253906 254.6875 " fill-opacity="1" fill-rule="nonzero"/></svg>