<svg xmlns="http://www.w3.org/2000/svg" xmlns:xlink="http://www.w3.org/1999/xlink" width="1920" zoomAndPan="magnify" viewBox="0 0 1440 809.999993" height="1080" preserveAspectRatio="xMidYMid meet" version="1.0"><defs><clipPath id="f6309fc380"><path d="M 319 449 L 550 449 L 550 561.042969 L 319 561.042969 Z M 319 449 " clip-rule="nonzero"/></clipPath><clipPath id="9d7a13929b"><path d="M 621 248.59375 L 850 248.59375 L 850 431 L 621 431 Z M 621 248.59375 " clip-rule="nonzero"/></clipPath><clipPath id="9570dbc78f"><path d="M 604 449 L 849 449 L 849 561.042969 L 604 561.042969 Z M 604 449 " clip-rule="nonzero"/></clipPath><clipPath id="d9643a7e1e"><path d="M 888 449 L 1107 449 L 1107 561.042969 L 888 561.042969 Z M 888 449 " clip-rule="nonzero"/></clipPath></defs><g clip-path="url(#f6309fc380)"><path fill="#a1a1a6" d="M 511.523438 484.953125 C 502.753906 501.070312 490.835938 513.441406 475.84375 522.0625 C 460.851562 530.679688 444.28125 534.953125 425.992188 534.953125 C 402.902344 534.953125 384.160156 527.832031 369.695312 513.441406 C 355.226562 499.046875 348.03125 480.15625 348.03125 456.691406 C 348.03125 454.367188 348.179688 452.121094 348.328125 449.871094 L 320.292969 449.871094 C 320.144531 452.269531 319.917969 454.667969 319.917969 457.066406 C 319.917969 487.578125 329.589844 512.539062 348.929688 531.957031 C 368.195312 551.371094 392.859375 561.042969 422.84375 561.042969 C 455.300781 561.042969 484.164062 548.449219 509.425781 523.261719 C 509.578125 523.109375 509.875 523.035156 510.101562 523.183594 C 510.324219 523.261719 510.402344 523.484375 510.402344 523.710938 L 506.277344 554.667969 C 506.277344 554.820312 506.351562 555.042969 506.425781 555.121094 C 506.578125 555.269531 506.726562 555.34375 506.878906 555.34375 L 534.390625 555.34375 C 534.6875 555.34375 534.914062 555.121094 534.988281 554.820312 L 549.15625 449.871094 L 523.292969 449.871094 C 521.421875 462.238281 517.523438 473.933594 511.523438 484.953125 " fill-opacity="1" fill-rule="nonzero"/></g><path fill="#a1a1a6" d="M 376.964844 384.277344 C 396.304688 364.636719 419.542969 354.742188 446.679688 354.742188 C 469.769531 354.742188 488.585938 361.9375 502.980469 376.332031 C 517.148438 390.347656 524.269531 408.492188 524.644531 430.679688 L 551.78125 430.679688 L 564.75 334.726562 C 564.75 334.5 564.75 334.351562 564.597656 334.277344 C 564.523438 334.125 564.375 334.050781 564.226562 334.050781 L 535.886719 334.050781 C 535.589844 334.050781 535.289062 334.277344 535.289062 334.578125 L 530.417969 374.382812 C 530.417969 374.605469 530.191406 374.832031 529.964844 374.832031 C 529.742188 374.90625 529.515625 374.832031 529.367188 374.605469 C 520.070312 358.941406 508.601562 347.394531 495.109375 339.898438 C 481.238281 332.175781 465.046875 328.355469 446.605469 328.355469 C 412.5 328.355469 382.886719 341.023438 357.699219 366.285156 C 339.035156 385.027344 327.339844 406.464844 322.542969 430.679688 L 351.101562 430.679688 C 355.300781 413.136719 363.847656 397.621094 376.964844 384.277344 " fill-opacity="1" fill-rule="nonzero"/><g clip-path="url(#9d7a13929b)"><path fill="#a1a1a6" d="M 657.628906 404.441406 C 666.398438 388.25 678.320312 375.882812 693.460938 367.335938 C 708.53125 358.714844 725.171875 354.367188 743.3125 354.367188 C 766.550781 354.367188 785.441406 361.5625 799.835938 375.957031 C 813.855469 389.898438 821.050781 408.191406 821.425781 430.679688 L 849.460938 430.679688 C 849.160156 400.917969 839.566406 376.480469 820.675781 357.441406 C 801.484375 338.023438 776.820312 328.355469 746.761719 328.355469 C 714.453125 328.355469 685.515625 341.023438 660.027344 366.285156 C 659.804688 366.511719 659.578125 366.511719 659.355469 366.4375 C 659.128906 366.285156 658.980469 366.0625 659.054688 365.835938 L 674.570312 249.269531 C 674.570312 249.117188 674.496094 248.96875 674.421875 248.816406 C 674.269531 248.667969 674.121094 248.59375 673.972656 248.59375 L 646.234375 248.59375 C 646.011719 248.59375 645.710938 248.816406 645.710938 249.117188 L 621.121094 430.679688 L 647.507812 430.679688 C 649.683594 421.535156 653.058594 412.761719 657.628906 404.441406 " fill-opacity="1" fill-rule="nonzero"/></g><g clip-path="url(#9570dbc78f)"><path fill="#a1a1a6" d="M 792.488281 505.117188 C 773.074219 524.757812 749.761719 534.578125 722.625 534.578125 C 699.535156 534.578125 680.792969 527.382812 666.25 513.066406 C 651.707031 498.671875 644.4375 480.007812 644.4375 457.066406 C 644.4375 454.667969 644.511719 452.269531 644.660156 449.871094 L 618.574219 449.871094 L 604.332031 554.667969 C 604.332031 554.820312 604.40625 555.042969 604.480469 555.121094 C 604.628906 555.269531 604.78125 555.34375 604.929688 555.34375 L 633.265625 555.34375 C 633.566406 555.34375 633.792969 555.121094 633.867188 554.820312 L 638.8125 514.640625 C 638.8125 514.414062 639.039062 514.265625 639.261719 514.1875 C 639.488281 514.113281 639.714844 514.265625 639.863281 514.414062 C 649.609375 530.15625 661.226562 541.777344 674.796875 549.347656 C 688.738281 557.144531 704.929688 561.042969 723.371094 561.042969 C 757.40625 561.042969 786.867188 548.371094 811.980469 523.109375 C 832.746094 502.121094 844.8125 477.683594 848.335938 449.871094 L 820.152344 449.871094 C 816.925781 471.085938 807.78125 489.527344 792.488281 505.117188 " fill-opacity="1" fill-rule="nonzero"/></g><path fill="#a1a1a6" d="M 930.273438 404.816406 C 939.34375 389.375 951.9375 377.304688 968.054688 368.609375 C 984.171875 359.914062 1002.011719 355.566406 1021.503906 355.566406 C 1055.011719 355.566406 1079.976562 368.761719 1096.390625 394.996094 C 1096.542969 395.222656 1096.917969 395.371094 1097.140625 395.148438 L 1119.554688 382.101562 C 1119.855469 381.953125 1119.929688 381.578125 1119.78125 381.355469 C 1110.710938 364.785156 1097.742188 351.816406 1080.800781 342.449219 C 1063.707031 333.078125 1043.992188 328.355469 1021.652344 328.355469 C 984.320312 328.355469 952.835938 340.875 927.125 365.835938 C 907.859375 384.578125 895.863281 406.242188 891.066406 430.679688 L 919.628906 430.679688 C 921.875 421.757812 925.398438 413.136719 930.273438 404.816406 " fill-opacity="1" fill-rule="nonzero"/><g clip-path="url(#d9643a7e1e)"><path fill="#a1a1a6" d="M 888.59375 456.316406 C 888.59375 488.027344 898.414062 513.363281 917.980469 532.40625 C 937.617188 551.519531 964.90625 561.042969 999.839844 561.042969 C 1022.476562 561.042969 1042.417969 557.367188 1059.585938 549.945312 C 1076.527344 542.601562 1092.269531 531.054688 1106.8125 515.3125 C 1106.886719 515.238281 1106.960938 515.015625 1106.960938 514.863281 C 1106.960938 514.714844 1106.8125 514.5625 1106.738281 514.488281 L 1084.324219 498.671875 C 1084.023438 498.523438 1083.722656 498.523438 1083.5 498.820312 C 1074.878906 509.316406 1062.882812 517.9375 1047.589844 524.609375 C 1032.074219 531.429688 1015.804688 534.804688 998.789062 534.804688 C 982.074219 534.804688 967.605469 531.429688 955.386719 524.835938 C 943.089844 518.164062 933.570312 508.71875 926.824219 496.347656 C 920.078125 484.054688 916.703125 470.035156 916.703125 454.441406 C 916.703125 452.945312 916.777344 451.371094 916.855469 449.871094 L 888.894531 449.871094 C 888.816406 452.042969 888.59375 454.144531 888.59375 456.316406 " fill-opacity="1" fill-rule="nonzero"/></g><path fill="#a1a1a6" d="M 1199.167969 430.679688 L 240.832031 430.679688 C 240.457031 430.679688 240.230469 430.980469 240.230469 431.28125 L 240.230469 449.269531 C 240.230469 449.644531 240.457031 449.871094 240.832031 449.871094 L 1199.167969 449.871094 C 1199.46875 449.871094 1199.765625 449.644531 1199.765625 449.269531 L 1199.765625 431.28125 C 1199.765625 430.980469 1199.46875 430.679688 1199.167969 430.679688 " fill-opacity="1" fill-rule="nonzero"/></svg>